<svg xmlns="http://www.w3.org/2000/svg" width="204" height="212" fill="none" viewBox="0 0 204 212"><path fill="#465fff" fill-rule="evenodd" d="M12.398 187.784c2.946 5.104 9.474 6.851 14.578 3.905 7.112-4.106 16.005 1.025 16.005 9.237 0 5.892 4.776 10.668 10.668 10.668h21.8c5.893 0 10.67-4.778 10.67-10.671 0-8.213 8.892-13.348 16.005-9.241 5.103 2.946 11.628 1.198 14.574-3.906l10.901-18.881c2.946-5.102 1.196-11.627-3.906-14.572-7.109-4.105-7.112-14.367-.004-18.472 5.1-2.944 6.848-9.466 3.903-14.566l-10.905-18.888c-2.945-5.101-9.468-6.849-14.569-3.904-7.11 4.106-15.999-1.029-15.999-9.24 0-5.891-4.776-10.67-10.668-10.67H53.647c-5.89 0-10.666 4.776-10.666 10.666 0 8.211-8.89 13.342-16 9.237-5.102-2.946-11.627-1.198-14.572 3.904L1.508 121.271c-2.947 5.103-1.198 11.628 3.905 14.575 7.113 4.106 7.11 14.375-.004 18.482-5.105 2.947-6.856 9.476-3.908 14.581zm52.15-19.208c12.963 0 23.471-10.508 23.471-23.471 0-12.962-10.508-23.471-23.47-23.471s-23.472 10.509-23.472 23.471 10.509 23.471 23.471 23.471M87.95 54.464a5.87 5.87 0 0 0 5.553 6.17c4.51.236 7.074 5.268 4.613 9.055a5.87 5.87 0 0 0 1.724 8.117l10.054 6.532a5.87 5.87 0 0 0 8.119-1.724c2.461-3.788 8.101-3.492 10.151.534a5.87 5.87 0 0 0 7.892 2.566l10.685-5.442a5.87 5.87 0 0 0 2.565-7.891c-2.049-4.023 1.025-8.758 5.533-8.52a5.864 5.864 0 0 0 6.165-5.549l.63-11.979a5.865 5.865 0 0 0-5.549-6.166c-4.51-.237-7.07-5.269-4.61-9.055a5.87 5.87 0 0 0-1.723-8.118l-10.056-6.534a5.867 5.867 0 0 0-8.116 1.723c-2.46 3.787-8.097 3.49-10.147-.534a5.867 5.867 0 0 0-7.89-2.566l-10.686 5.441a5.87 5.87 0 0 0-2.566 7.893c2.05 4.025-1.028 8.76-5.54 8.523a5.87 5.87 0 0 0-6.172 5.553zm29.807 6.768c5.979 3.884 13.974 2.187 17.858-3.792s2.187-13.974-3.792-17.858-13.974-2.187-17.858 3.792-2.186 13.974 3.792 17.858M157.997 100.165a3.637 3.637 0 0 0 4.636 2.226c2.64-.928 5.296 1.351 4.779 4.101a3.635 3.635 0 0 0 2.901 4.244l7.301 1.373a3.637 3.637 0 0 0 4.245-2.902c.517-2.751 3.818-3.911 5.942-2.088a3.636 3.636 0 0 0 5.127-.39l4.839-5.637a3.636 3.636 0 0 0-.391-5.127c-2.122-1.822-1.477-5.259 1.162-6.186a3.634 3.634 0 0 0 2.224-4.632l-2.463-7.013a3.635 3.635 0 0 0-4.634-2.224c-2.64.927-5.293-1.352-4.776-4.102a3.636 3.636 0 0 0-2.901-4.245l-7.303-1.372a3.635 3.635 0 0 0-4.243 2.9c-.517 2.75-3.817 3.909-5.94 2.086a3.635 3.635 0 0 0-5.126.39l-4.839 5.638a3.635 3.635 0 0 0 .39 5.127c2.124 1.823 1.476 5.262-1.165 6.19a3.64 3.64 0 0 0-2.227 4.636zm18.674-3.15a7.998 7.998 0 1 0 2.955-15.72 7.998 7.998 0 0 0-2.955 15.72" clip-rule="evenodd"/></svg>