<svg xmlns="http://www.w3.org/2000/svg" width="160" height="160" fill="none" viewBox="0 0 160 160"><path fill="#7592ff" fill-rule="evenodd" d="m115.114 65.896-43.076 43.077a6.14 6.14 0 0 1-4.345 1.8 6.14 6.14 0 0 1-4.345-1.8L44.887 90.511a6.157 6.157 0 0 1-.089-8.778 6.153 6.153 0 0 1 8.778.064l14.117 14.118 38.732-38.733a6.17 6.17 0 0 1 4.376-1.872 6.153 6.153 0 0 1 4.313 10.586m37.884 28.246L145.748 80l7.237-14.154a7.786 7.786 0 0 0-2.695-10.091l-13.354-8.616-.8-15.84a7.719 7.719 0 0 0-7.385-7.422l-15.877-.812-8.652-13.379a7.83 7.83 0 0 0-10.092-2.67L80 14.253 65.848 7.016a7.766 7.766 0 0 0-10.092 2.707l-8.628 13.354-15.865.8a7.704 7.704 0 0 0-7.384 7.385l-.813 15.877-13.39 8.64A7.804 7.804 0 0 0 7.016 65.87l7.237 14.141-7.237 14.154a7.78 7.78 0 0 0 2.695 10.08l13.354 8.628.8 15.828c.173 4.061 3.373 7.261 7.385 7.433l15.877.8 8.652 13.391c2.179 3.323 6.523 4.456 10.092 2.659l14.13-7.237 14.153 7.25a7.746 7.746 0 0 0 10.093-2.708l8.627-13.355 15.828-.787a7.718 7.718 0 0 0 7.434-7.397l.8-15.877 13.391-8.652a7.79 7.79 0 0 0 3.263-4.53 7.8 7.8 0 0 0-.592-5.55" clip-rule="evenodd"/></svg>