<svg xmlns="http://www.w3.org/2000/svg" width="21" height="21" fill="none" viewBox="0 0 21 21"><g clip-path="url(#a)"><path fill="#ffda44" d="M14.353 1.122A10 10 0 0 0 10.875.5c-1.223 0-2.395.22-3.479.622l-.87 9.378.87 9.378a10 10 0 0 0 3.479.622c1.223 0 2.395-.22 3.478-.622l.87-9.378z"/><path fill="#d80027" d="M20.875 10.5c0-4.3-2.714-7.966-6.522-9.379v18.757a10 10 0 0 0 6.522-9.379"/><path fill="#000" d="M.875 10.5c0 4.3 2.713 7.965 6.521 9.378V1.122A10 10 0 0 0 .875 10.5"/></g><defs><clipPath id="a"><rect width="20" height="20" x=".875" y=".5" fill="#fff" rx="10"/></clipPath></defs></svg>