<svg xmlns="http://www.w3.org/2000/svg" width="21" height="21" fill="none" viewBox="0 0 21 21"><g clip-path="url(#a)"><path fill="#f0f0f0" d="M10.875 20.5c5.523 0 10-4.477 10-10s-4.477-10-10-10-10 4.477-10 10 4.477 10 10 10"/><path fill="#0052b4" d="M20.79 9.196H8.702V.738c-.924.205-1.8.537-2.609.978v7.48H.96a10 10 0 0 0 0 2.608h5.132v7.48a10 10 0 0 0 2.61.978v-8.458H20.79a10 10 0 0 0 0-2.608"/></g><defs><clipPath id="a"><rect width="20" height="20" x=".875" y=".5" fill="#fff" rx="10"/></clipPath></defs></svg>