<svg xmlns="http://www.w3.org/2000/svg" width="21" height="21" fill="none" viewBox="0 0 21 21"><g clip-path="url(#a)"><path fill="#f0f0f0" d="M10.875 20.5c5.523 0 10-4.477 10-10s-4.477-10-10-10-10 4.477-10 10 4.477 10 10 10"/><path fill="#0052b4" d="M2.942 4.41A10 10 0 0 0 1.22 7.89h5.202zM20.53 7.89a10 10 0 0 0-1.722-3.479l-3.48 3.48zM1.22 13.109a10 10 0 0 0 1.722 3.479l3.48-3.48zM16.963 2.566a10 10 0 0 0-3.48-1.722v5.202zM4.787 18.431a10 10 0 0 0 3.48 1.723v-5.202zM8.266.844a10 10 0 0 0-3.48 1.722l3.48 3.48zM13.483 20.154a10 10 0 0 0 3.48-1.723l-3.48-3.48zM15.329 13.109l3.48 3.479a10 10 0 0 0 1.722-3.48z"/><path fill="#d80027" d="M20.79 9.196h-8.61V.585a10 10 0 0 0-2.61 0v8.61H.96a10 10 0 0 0 0 2.61h8.61v8.61a10 10 0 0 0 2.61 0v-8.61h8.61a10 10 0 0 0 0-2.61"/><path fill="#d80027" d="m13.484 13.11 4.462 4.462q.308-.308.588-.642l-3.82-3.82zM8.266 13.11l-4.462 4.462q.308.307.642.588l3.82-3.821zM8.266 7.89 3.804 3.429q-.308.309-.588.642l3.82 3.82zM13.484 7.892l4.462-4.463q-.308-.307-.642-.587l-3.82 3.82z"/></g><defs><clipPath id="a"><rect width="20" height="20" x=".875" y=".5" fill="#fff" rx="10"/></clipPath></defs></svg>