<svg xmlns="http://www.w3.org/2000/svg" width="21" height="21" fill="none" viewBox="0 0 21 21"><g clip-path="url(#a)"><path fill="#f0f0f0" d="M10.875 20.5c5.523 0 10-4.477 10-10s-4.477-10-10-10-10 4.477-10 10 4.477 10 10 10"/><path fill="#d80027" d="M.875 10.5c0-5.523 4.477-10 10-10s10 4.477 10 10"/><path fill="#f0f0f0" d="M6.962 5.718a3.044 3.044 0 0 1 2.39-2.973 3.043 3.043 0 1 0 0 5.945 3.044 3.044 0 0 1-2.39-2.972M10.875 2.892l.216.664h.698l-.565.41.216.665-.565-.41-.565.41.215-.664-.565-.411h.699z"/><path fill="#f0f0f0" d="m9.18 4.196.216.664h.699l-.565.41.216.665-.566-.41-.565.41.216-.665-.565-.41h.699zM12.57 4.196l.215.664h.698l-.565.41.216.665-.565-.41-.565.41.216-.665-.565-.41h.698zM11.917 6.153l.216.664h.698l-.565.41.216.665-.565-.41-.565.41.216-.664-.565-.41h.698zM9.832 6.153l.216.664h.699l-.565.41.216.665-.566-.41-.565.41.216-.664-.565-.41h.699z"/></g><defs><clipPath id="a"><rect width="20" height="20" x=".875" y=".5" fill="#fff" rx="10"/></clipPath></defs></svg>